<svg xmlns="http://www.w3.org/2000/svg" xmlns:xlink="http://www.w3.org/1999/xlink" width="949" height="693.853" viewBox="0 0 949 693.853">
  <defs>
    <linearGradient id="linear-gradient" x1="0.5" y1="1" x2="0.5" gradientUnits="objectBoundingBox">
      <stop offset="0" stop-color="gray" stop-opacity="0.251"/>
      <stop offset="0.54" stop-color="gray" stop-opacity="0.122"/>
      <stop offset="1" stop-color="gray" stop-opacity="0.102"/>
    </linearGradient>
  </defs>
  <g id="undraw_feeling_blue_4b7q" transform="translate(55.637 -0.004)">
    <path id="Tracé_1" data-name="Tracé 1" d="M61.83,433.31c14.176,54.787,44.161,102.147,91.545,125.1,98.507,47.711,320.665,23.1,486.47-5.142C725.612,538.664,801,498.347,855.76,441.61Z" transform="translate(-56.562 -115.819)" fill="#6c63ff" opacity="0.1"/>
    <path id="Tracé_2" data-name="Tracé 2" d="M936.462,103.893H845.489c-4.317,0-7.859-3.2-7.859-7.108s3.542-7.117,7.859-7.117h15.735c-4.325,0-7.859-3.2-7.859-7.117s3.534-7.108,7.859-7.108h-11.23c-4.325,0-7.867-3.2-7.867-7.117s3.542-7.108,7.867-7.108h47.482a136.069,136.069,0,0,0-37.044-9.239c-129.479-15.041-175.7-5.093-192.011,5.133a191.4,191.4,0,0,1-66.547,26.394C521.991,98.416,372.6,116.355,237.195,77.793,169.9,58.589,119.876,91,89.9,145.172H952.263c-1.126-15.743-4.5-30.287-10.683-43.01a8.3,8.3,0,0,1-5.117,1.73Z" transform="translate(-61.724 -44.29)" fill="#6c63ff" opacity="0.1"/>
    <path id="Tracé_3" data-name="Tracé 3" d="M51.939,293.19a328.519,328.519,0,0,0,3.526,95.585l798.729,26.434a338.859,338.859,0,0,0,55.5-76.569Zm315.907,68.188H352.119c4.325,0,7.867,3.207,7.867,7.117s-3.542,7.108-7.867,7.108H261.145c-4.317,0-7.859-3.2-7.859-7.108s3.542-7.117,7.859-7.117H276.88c-4.326,0-7.859-3.2-7.859-7.109s3.534-7.117,7.859-7.117H265.642c-4.326,0-7.868-3.2-7.868-7.108s3.542-7.117,7.868-7.117h90.974c4.325,0,7.859,3.2,7.859,7.117s-3.534,7.108-7.859,7.108h11.23c4.326,0,7.859,3.2,7.859,7.117S372.172,361.378,367.846,361.378Z" transform="translate(-54.384 -90.055)" fill="#6c63ff" opacity="0.1"/>
    <path id="Tracé_4" data-name="Tracé 4" d="M945.422,168.5,73.4,187.679C62.8,212.351,55.76,240.246,52.52,269.153H930.144a309.554,309.554,0,0,0,12.666-51.93C945.43,200.239,946.475,183.811,945.422,168.5ZM229.571,231.383H213.844c4.325,0,7.867,3.207,7.867,7.117s-3.542,7.117-7.867,7.117H122.87c-4.317,0-7.859-3.207-7.859-7.117s3.542-7.117,7.859-7.117h15.735c-4.325,0-7.859-3.2-7.859-7.108s3.534-7.117,7.859-7.117H127.367c-4.325,0-7.867-3.2-7.867-7.108s3.542-7.117,7.867-7.117h90.974c4.326,0,7.859,3.2,7.859,7.117s-3.534,7.108-7.859,7.108h11.23c4.325,0,7.859,3.207,7.859,7.117S233.9,231.383,229.571,231.383Z" transform="translate(-54.85 -67.128)" fill="#6c63ff" opacity="0.1"/>
    <ellipse id="Ellipse_1" data-name="Ellipse 1" cx="364.793" cy="41.559" rx="364.793" ry="41.559" transform="translate(75.667 554.344)" fill="#6c63ff" opacity="0.1"/>
    <path id="Tracé_5" data-name="Tracé 5" d="M1010.737,419.533a1.217,1.217,0,0,1,0-.171v-.253h0a6.966,6.966,0,0,0-1.036-2.62,20.64,20.64,0,0,0-7.557-7.149c-5.386-2.954-12.789-4.219-14.943-9.859a30.126,30.126,0,0,1-1-5.476,16.559,16.559,0,0,0-10.928-12.43c-2.563-.857-5.329-1.094-7.819-2.155-5.566-2.367-8.5-8.2-10.993-13.6q-4.831-10.446-9.663-20.9c-2.449,1.232-5.615.653-7.908-.89a16.4,16.4,0,0,1-5.117-6.325c-3.322-6.447-4.75-13.752-8.651-19.889s-11.7-10.985-18.583-8.316a31.7,31.7,0,0,1-4.162,1.722c-5.9,1.379-12.43-5.362-17.482-2.089a5.713,5.713,0,0,0-1.983,2.171.985.985,0,0,1,0-.163,10.439,10.439,0,0,0-1.077,4.26h0v1.028c0,1.175.074,2.367.09,3.558a15.851,15.851,0,0,1-.228,2.987V322.9a10.053,10.053,0,0,1-.424,1.632c-1.314,3.526-4.954,5.835-6.66,9.149v-.163a8.618,8.618,0,0,0-.5,1.118,8.325,8.325,0,0,0-.465,2.7c-.147,6.227,6.456,12.087,7.223,18.771.547,4.734,1.632,6.252,5.656,8.928l.881.588c-.351,0-.71.049-1.11.057a2.723,2.723,0,0,0-.465.049,4.979,4.979,0,0,0-4.195.735c-3.085,2.448-10.381.563-13.621,0s-14.339.955-15.89,7.108-4.211,18.853-4.211,18.853,0,8.055-.988,9.557a.483.483,0,0,0,0,.326c0,2.261.082,15.849-2.106,19.35-.539.816-.5,2.62-.1,4.84-2.3,2.963-4.464,6.423-4.081,8.692.7,4.644,10.12,19.244,23.619,11.426,0,0,7.68-14.046-1.983-21.513l.416-1.632c2.922,3.591,5.084,6.17,5.084,6.17s.114.3.294.816h-.294a38.355,38.355,0,0,1,2.269,10.675,13.054,13.054,0,0,1-.718,3.926h.253c-.074.277-.155.555-.253.816a7.116,7.116,0,0,1-2.538,3.436c-6.749,4.783-14.478,38.938-14.478,38.938S837,543.454,833.94,546.6c-2.53,2.579,13.368,9.843,25.3,8.977a19.472,19.472,0,0,0,4.9-.93c.073.816.155,1.632.237,2.375.253,2.448.514,4.717.677,5.427.424,1.779,1.265,19.946,1.265,19.946s-1.722,11.8-1.306,20.012c0,.563.073,1.1.123,1.632l-1.486.229c-2.253,5.06,7.027,47.278,8.292,50.828a33.812,33.812,0,0,1,1.4,8.61s-.816,3-.139,4.644a11.29,11.29,0,0,1,.816,3.142,8.652,8.652,0,0,0,.286,4.505c.841,1.779-.139,4.9-.139,4.9s-.277,12.3-2.807,18.991a10.936,10.936,0,0,0,1.755,10.838,6.679,6.679,0,0,0,.571.661s13.956.114,16.412,0h.318c.988-.139,3.517-11.206,1.265-16.535s-.278-11.891-.278-11.891v-9.7s2.53-2.334,0-7.345-2.114-6.529-2.114-6.529,2.816-8.063-.139-10.659.563-12.438.563-12.438l1-32.808a12.879,12.879,0,0,0-1.591-.408c-.057-.539-.114-1.094-.172-1.681-.579-5.941-1.077-14.021.212-16.323s1.91-22.395,2.114-36.359l12.862.49c.269,6.529.555,12.487.734,13.246.424,1.779,1.273,19.946,1.273,19.946s-1.73,11.8-1.314,20.012c0,.563.074,1.1.122,1.632l-1.485.229c-2.252,5.06,7.027,47.278,8.292,50.828a33.989,33.989,0,0,1,1.412,8.61s-.816,3-.147,4.644a11.293,11.293,0,0,1,.816,3.142,8.65,8.65,0,0,0,.286,4.505c.841,1.779-.139,4.9-.139,4.9s-.277,12.3-2.807,18.991A10.936,10.936,0,0,0,912.99,710.7a6.7,6.7,0,0,0,.571.661s13.956.114,16.412,0h.318c.987-.139,3.517-11.206,1.265-16.535s-.278-11.891-.278-11.891V673.26s2.53-2.334,0-7.345-2.114-6.529-2.114-6.529,2.816-8.063-.139-10.659.563-12.438.563-12.438l1.012-32.808a12.5,12.5,0,0,0-1.632-.408c-.057-.539-.114-1.094-.171-1.681-.579-5.941-1.077-14.021.212-16.323,1.036-1.885,1.632-14.029,1.9-25.888,0-.816,0-1.632.065-2.448a126.554,126.554,0,0,0,17.612-1.975s-6.88-24.329-4.774-28.287c.906-1.706-.4-10.789-2.187-20.575a14.3,14.3,0,0,0,8.8,3.183c3.077,5.917,12.438,19.53,17.71,21.627,6.186,2.448,1.542-19.261-1.4-22.4a26.432,26.432,0,0,1-3.493-5.607c.082-.1.171-.179.253-.269s.147-23.1-1.265-22.68-3.093-3.42-3.093-3.42l-4.358-38.252-1.828-16.012h0c1.526,1.126,3.338,1.844,4.9,2.963,4.244,3.109,5.631,8.569,7.492,13.4,1.534,3.975,3.689,7.916,7.223,10.414s8.716,3.158,12.242.628c3.264-2.375,4.227-6.66,4.946-10.569,5.925,2.081,13.115-3.485,12.348-9.565-.188-1.5-.743-3.142.041-4.456,1.567-2.6,6.529-1.085,8.161-3.648a2.726,2.726,0,0,0,.408-1.477A1.014,1.014,0,0,0,1010.737,419.533Zm-79.254,21.04c-.09,1.461,1.918,13.2,3.55,22.484-1.338-5.786-4.023-11.964-9.312-16.2a7.329,7.329,0,0,0-.065-.816h.065s-.22-2.334-.253-5.656a62.321,62.321,0,0,1,.653-8.8v-.073h-.106a4.665,4.665,0,0,1,.106-.743,26.524,26.524,0,0,1,1.983-7.133,19.775,19.775,0,0,1,1.51-2.563C930.488,428.968,931.565,439.1,931.483,440.573Zm4.391,27.193c.718,4.007,1.232,6.823,1.232,6.823l4.334,29.756v.139c-2.334-12.56-5.313-25.8-5.313-25.8A51.4,51.4,0,0,0,935.874,467.767Z" transform="translate(-198.482 -92.82)" fill="url(#linear-gradient)"/>
    <path id="Tracé_6" data-name="Tracé 6" d="M892.246,358.145c-.816-7.541-8.977-14.046-6.529-21.219,1.33-3.909,5.493-6.3,6.9-10.185.93-2.563.514-5.378.522-8.1s.645-5.77,2.914-7.28c4.9-3.265,11.2,3.452,16.91,2.081a29.93,29.93,0,0,0,4.024-1.714c6.668-2.652,14.209,2.179,17.955,8.284s5.15,13.384,8.365,19.8a16.241,16.241,0,0,0,4.946,6.292,7.688,7.688,0,0,0,7.655.89l9.345,20.811c2.448,5.362,5.256,11.173,10.61,13.531,2.4,1.053,5.076,1.29,7.557,2.146a16.323,16.323,0,0,1,10.61,12.364A30.447,30.447,0,0,0,995,401.3c2.081,5.615,9.239,6.872,14.454,9.794a20.217,20.217,0,0,1,7.345,7.108c.816,1.412,1.518,3.264.644,4.652-1.575,2.546-6.366,1.045-7.884,3.632-.767,1.306-.229,2.938,0,4.44.743,6.048-6.219,11.589-11.948,9.516-.694,3.893-1.632,8.161-4.782,10.52-3.387,2.53-8.406,1.861-11.826-.62s-5.493-6.407-6.978-10.365c-1.8-4.815-3.15-10.251-7.255-13.344-1.485-1.11-3.264-1.828-4.717-2.946-3.264-2.5-4.9-6.619-6.064-10.61-1.51-4.978-2.71-10.1-4.9-14.8s-5.648-9.075-10.389-11.222c-4.448-2-9.573-1.869-14.168-3.493-7.908-2.791-13.76-9.443-21.628-12.577a35,35,0,0,1-7.1-4.015C893.846,364.372,892.769,362.862,892.246,358.145Z" transform="translate(-207.967 -93.228)" fill="#3f3d56"/>
    <g id="Groupe_1" data-name="Groupe 1" transform="translate(677.351 220.111)" opacity="0.1">
      <path id="Tracé_7" data-name="Tracé 7" d="M894.72,325.791a8.206,8.206,0,0,0,.441-.987c.922-2.563.514-5.378.522-8.1a14.57,14.57,0,0,1,.253-2.71,11.428,11.428,0,0,0-1.069,5.158A37.557,37.557,0,0,1,894.72,325.791Z" transform="translate(-887.057 -313.99)"/>
      <path id="Tracé_8" data-name="Tracé 8" d="M993.606,454.08c-3.387,2.522-8.406,1.861-11.826-.628s-5.5-6.4-6.945-10.373c-1.8-4.815-3.142-10.251-7.255-13.344-1.477-1.11-3.265-1.836-4.709-2.946-3.265-2.5-4.9-6.619-6.072-10.569-1.51-4.978-2.7-10.1-4.9-14.8s-5.639-9.075-10.389-11.222c-4.44-2-9.565-1.869-14.16-3.493-7.916-2.791-13.768-9.443-21.627-12.577a35.461,35.461,0,0,1-7.109-4.015c-3.868-2.669-4.9-4.179-5.468-8.888-.816-7.068-8-13.229-6.88-19.889a10.4,10.4,0,0,0-.482,1.11c-2.448,7.182,5.713,13.686,6.529,21.219.53,4.709,1.632,6.219,5.468,8.888a35.465,35.465,0,0,0,7.109,4.015c7.859,3.134,13.711,9.794,21.628,12.577,4.595,1.632,9.72,1.494,14.16,3.493,4.75,2.146,8.161,6.529,10.389,11.222s3.419,9.794,4.9,14.8c1.2,3.95,2.775,8.072,6.072,10.569,1.477,1.11,3.265,1.836,4.709,2.946,4.081,3.093,5.452,8.529,7.255,13.344,1.485,3.958,3.567,7.876,6.986,10.357s8.439,3.15,11.826.628c2.163-1.632,3.264-4.121,3.991-6.79A10.02,10.02,0,0,1,993.606,454.08Z" transform="translate(-885.331 -319.019)"/>
      <path id="Tracé_9" data-name="Tracé 9" d="M1038.459,448.791a3.438,3.438,0,0,0-.392,1.91c1.844-1.82,6.007-.751,7.459-3.093a2.978,2.978,0,0,0,.375-1.918C1044.009,447.486,1039.846,446.416,1038.459,448.791Z" transform="translate(-913.412 -338.206)"/>
      <path id="Tracé_10" data-name="Tracé 10" d="M1023.746,465.47c-.155.816-.31,1.689-.506,2.538,4.995,1.559,10.765-2.448,11.581-7.508C1032.838,464.393,1027.941,467,1023.746,465.47Z" transform="translate(-910.688 -340.929)"/>
    </g>
    <path id="Tracé_11" data-name="Tracé 11" d="M904.962,372.645s2.718,5.484-5.3,5.6,5.166,35.616,5.166,35.616l13.336,16.975,16.592-8.977.955-24.761,1.224-14.96s-15.506-5.035-12.65-11.7S904.962,372.645,904.962,372.645Z" transform="translate(-210.138 -103.803)" fill="#fbbebe"/>
    <path id="Tracé_12" data-name="Tracé 12" d="M965.75,548.252s9.794,9.638,21.219-3.15L978.2,535.79H967.1Z" transform="translate(-222.767 -134.662)" fill="#575a89"/>
    <path id="Tracé_13" data-name="Tracé 13" d="M966.747,535.79,965.4,548.252s9.793,9.638,21.219-3.15" transform="translate(-222.703 -134.662)" opacity="0.1"/>
    <path id="Tracé_14" data-name="Tracé 14" d="M984.789,537.87s3.942,10.34,6.8,13.466,7.345,24.753,1.363,22.3-17.408-20.673-18.094-23.8-.947-11.973-.947-11.973Z" transform="translate(-224.267 -135.044)" fill="#fbbebe"/>
    <path id="Tracé_15" data-name="Tracé 15" d="M832.42,553.891l52.771,2.04-6.121-22.313-26.581-.539Z" transform="translate(-157.453 -98.017)" fill="#575a89"/>
    <path id="Tracé_16" data-name="Tracé 16" d="M841.41,553.891l52.779,2.04-6.121-22.313-26.589-.539Z" transform="translate(-159.106 -98.017)" opacity="0.1"/>
    <path id="Tracé_17" data-name="Tracé 17" d="M897.993,636.791c-1.249,2.326-.767,10.373-.2,16.323.359,3.787.751,6.7.751,6.7s-19.726,6.121-22.713.816c-.759-1.347-1.134-3.705-1.265-6.472-.408-8.161,1.265-19.922,1.265-19.922s-.816-18.085-1.224-19.856c-.163-.71-.416-2.962-.661-5.4-.359-3.624-.7-7.655-.7-7.655l26.932-14.282s0,2.677-.049,6.8C899.976,606.782,899.544,633.935,897.993,636.791Z" transform="translate(-205.757 -144.085)" fill="#fbbebe"/>
    <path id="Tracé_18" data-name="Tracé 18" d="M898.838,674.595s-19.726,6.121-22.713.816c-.759-1.347-1.135-3.705-1.265-6.472,4.081-.62,16.5-2.334,23.227-1.045C898.446,671.681,898.838,674.595,898.838,674.595Z" transform="translate(-206.055 -158.866)" opacity="0.1"/>
    <path id="Tracé_19" data-name="Tracé 19" d="M899.141,777.795h-.31c-2.375.09-15.874,0-15.874,0a7.316,7.316,0,0,1-.555-.653,11.132,11.132,0,0,1-1.755-10.773c2.448-6.668,2.718-18.91,2.718-18.91s.955-3.126.139-4.9a8.84,8.84,0,0,1-.277-4.489,11.631,11.631,0,0,0-.816-3.126c-.677-1.632.139-4.627.139-4.627a34.637,34.637,0,0,0-1.363-8.569c-1.224-3.534-10.2-45.565-8.023-50.6,0,0,19.04-3.265,26.255-.816l-.955,32.645s-3.4,9.793-.547,12.381.139,10.61.139,10.61-.408,1.494,2.04,6.529,0,7.345,0,7.345V749.5s-1.9,6.529.269,11.834S900.1,777.623,899.141,777.795Z" transform="translate(-205.681 -159.233)" fill="#3f3d56"/>
    <path id="Tracé_20" data-name="Tracé 20" d="M945.283,635.854c-1.249,2.326-.767,10.373-.2,16.323.359,3.787.751,6.7.751,6.7s-19.726,6.121-22.713.816c-.759-1.346-1.134-3.705-1.265-6.472-.408-8.161,1.265-19.922,1.265-19.922s-.816-18.085-1.224-19.856c-.22-.955-.6-10.063-.906-18.232-.253-6.97-.457-13.27-.457-13.27l26.932,4.162s0,11.842-.335,24.01C946.834,621.914,946.287,634.009,945.283,635.854Z" transform="translate(-214.452 -143.147)" fill="#fbbebe"/>
    <path id="Tracé_21" data-name="Tracé 21" d="M946.128,674.595s-19.726,6.121-22.713.816c-.759-1.347-1.134-3.705-1.265-6.472,4.081-.62,16.5-2.334,23.227-1.045C945.736,671.681,946.128,674.595,946.128,674.595Z" transform="translate(-214.75 -158.866)" opacity="0.1"/>
    <path id="Tracé_22" data-name="Tracé 22" d="M946.425,777.787h-.31c-2.375.09-15.874,0-15.874,0a7.39,7.39,0,0,1-.555-.653,11.131,11.131,0,0,1-1.755-10.773c2.448-6.7,2.693-18.942,2.693-18.942s.955-3.126.139-4.9a8.841,8.841,0,0,1-.277-4.489,11.629,11.629,0,0,0-.816-3.126c-.678-1.632.139-4.627.139-4.627a34.644,34.644,0,0,0-1.363-8.569c-1.224-3.534-10.2-45.565-8.023-50.6,0,0,19.04-3.264,26.255-.816l-.955,32.645s-3.4,9.793-.547,12.381.139,10.61.139,10.61-.408,1.494,2.04,6.529,0,7.345,0,7.345v9.655s-1.9,6.529.269,11.834S947.38,777.616,946.425,777.787Z" transform="translate(-214.37 -159.226)" fill="#3f3d56"/>
    <circle id="Ellipse_2" data-name="Ellipse 2" cx="19.179" cy="19.179" r="19.179" transform="translate(686.254 236.899)" opacity="0.1"/>
    <circle id="Ellipse_3" data-name="Ellipse 3" cx="19.179" cy="19.179" r="19.179" transform="translate(686.254 236.082)" fill="#fbbebe"/>
    <path id="Tracé_23" data-name="Tracé 23" d="M873.24,601.322l26.932-14.282s0,2.677-.049,6.8c-3.934,2.35-9.867,5.884-15.572,9.222-3.1,1.82-6.129,3.583-8.724,5.06a11.6,11.6,0,0,1-1.885.816C873.583,605.354,873.24,601.322,873.24,601.322Z" transform="translate(-205.757 -144.085)" opacity="0.1"/>
    <path id="Tracé_24" data-name="Tracé 24" d="M947.47,586.062s0,11.842-.335,24.01h-.1a45.283,45.283,0,0,1-6.031-.188c-3.518-.375-6.333-1.306-7.345-3.15-2.049-3.591-7.786-8.161-12.634-11.565-.253-6.97-.457-13.27-.457-13.27Z" transform="translate(-214.46 -143.14)" opacity="0.1"/>
    <path id="Tracé_25" data-name="Tracé 25" d="M927.229,445.013a77.68,77.68,0,0,0-.392,16.021c12.373,10.2,10.063,31.69,10.063,31.69s9.524,43.532,7.484,47.474S949,568.354,949,568.354a118.764,118.764,0,0,1-17.2,1.975,45.283,45.283,0,0,1-6.031-.188c-3.518-.376-6.333-1.306-7.345-3.15-3.8-6.66-20.265-16.592-20.265-16.592s-10.43,6.252-20.142,11.94c-3.1,1.82-6.129,3.583-8.724,5.06a16.2,16.2,0,0,1-6.815,1.869c-11.548.857-26.932-6.374-24.484-8.937,3-3.134,17.824-58.084,17.824-58.084s7.476-34.008,14-38.766a7.059,7.059,0,0,0,2.448-3.42c2.236-6.211-1.5-16.168-1.5-16.168s-21.08-25.977-20.134-27.479.955-9.516.955-9.516,2.587-12.65,4.081-18.771,12.242-7.623,15.368-7.076,10.193,2.448,13.181,0,8.031.955,8.031.955l12.389,3.411,11.14-6.529s11.165.571,12.12,2.065,15.645,4.358,15.645,4.358c7.476,5.027,7.207,28.973,7.207,28.973S932.8,429.923,929.13,437.953a26.987,26.987,0,0,0-1.9,7.06Z" transform="translate(-199.23 -105.812)" fill="#575a89"/>
    <path id="Tracé_26" data-name="Tracé 26" d="M967.377,418.2l4.081,3.265,4.219,37.95,4.211,38.089s1.632,3.811,3,3.4,1.224,22.574,1.224,22.574-15.621-9.606-21.219,3.15l-4.358-30.76S952.948,464.45,953.086,462s-2.856-28.973-2.856-28.973Z" transform="translate(-219.913 -113.04)" fill="#575a89"/>
    <path id="Tracé_27" data-name="Tracé 27" d="M856.018,420.37l-3,3.673s.277,15.776-2.04,19.587,6.4,26.116,9.663,24.753,10.61-36.179,10.61-36.587S856.018,420.37,856.018,420.37Z" transform="translate(-201.593 -113.439)" fill="#575a89"/>
    <path id="Tracé_28" data-name="Tracé 28" d="M854.909,447.87s-9.524,9.655-8.847,14.282,9.793,19.163,22.852,11.352C868.914,473.5,881.025,450.726,854.909,447.87Z" transform="translate(-200.753 -118.496)" fill="#575a89"/>
    <path id="Tracé_29" data-name="Tracé 29" d="M900.989,801.758c-2.375.09-15.874,0-15.874,0a7.335,7.335,0,0,1-.555-.653C888.012,799.93,895.471,798.168,900.989,801.758Z" transform="translate(-207.839 -183.173)" opacity="0.1"/>
    <path id="Tracé_30" data-name="Tracé 30" d="M948.3,801.758c-2.375.09-15.874,0-15.874,0a7.337,7.337,0,0,1-.555-.653C935.306,799.93,942.765,798.168,948.3,801.758Z" transform="translate(-216.537 -183.173)" opacity="0.1"/>
    <path id="Tracé_31" data-name="Tracé 31" d="M884.552,509.11c-2.081,19.963-1.4,59.577-.963,77.173-3.1,1.82-6.129,3.583-8.724,5.06a16.191,16.191,0,0,1-6.815,1.869C867.185,587.891,879.166,533.235,884.552,509.11Z" transform="translate(-204.795 -129.756)" opacity="0.1"/>
    <path id="Tracé_32" data-name="Tracé 32" d="M890.826,495.23c-.057.286-1.045,4.627-2.546,11.328C888.868,500.837,889.684,496.732,890.826,495.23Z" transform="translate(-208.523 -127.204)" opacity="0.1"/>
    <path id="Tracé_33" data-name="Tracé 33" d="M926.89,492.59s11.565,72.635-22.68,81.613C904.2,574.17,927.9,570.571,926.89,492.59Z" transform="translate(-211.452 -126.719)" opacity="0.1"/>
    <path id="Tracé_34" data-name="Tracé 34" d="M949.56,591.042a45.263,45.263,0,0,1-6.031-.188L934.29,491.54C940.183,495.392,947.234,565.873,949.56,591.042Z" transform="translate(-216.982 -126.526)" opacity="0.1"/>
    <path id="Tracé_35" data-name="Tracé 35" d="M901.271,340.525a5.052,5.052,0,0,1,1.82.188,7.939,7.939,0,0,1,2.3,1.73,8.2,8.2,0,0,0,7.786,1.51,10.268,10.268,0,0,1,2.93-.816,4.667,4.667,0,0,1,3.713,2.448c.808,1.306,1.224,2.856,1.918,4.252a5.344,5.344,0,0,0,3.33,3.06,5.828,5.828,0,0,1,2.122.49,3,3,0,0,1,.914,1.265c1.273,2.75,2.285,6,5,7.345a7.483,7.483,0,0,0,3.191.694,6.669,6.669,0,0,0,3.265-.588,6.254,6.254,0,0,0,2.4-2.391c1.7-2.807,1.893-6.284,1.494-9.541a26.244,26.244,0,0,0-4.268-11.475,23.953,23.953,0,0,0-21.913-10.112,30.561,30.561,0,0,0-4.366.816c-5.19,1.387-10.283,3.983-13.433,8.333a28.28,28.28,0,0,1-2.506,3.085C898.4,340.68,899.835,340.558,901.271,340.525Z" transform="translate(-210.12 -96.543)" opacity="0.1"/>
    <path id="Tracé_36" data-name="Tracé 36" d="M901.271,339.525a5.052,5.052,0,0,1,1.82.188,7.94,7.94,0,0,1,2.3,1.73,8.2,8.2,0,0,0,7.786,1.51,10.267,10.267,0,0,1,2.93-.816,4.667,4.667,0,0,1,3.713,2.448c.808,1.306,1.224,2.856,1.918,4.252a5.344,5.344,0,0,0,3.33,3.061,5.827,5.827,0,0,1,2.122.49,3,3,0,0,1,.914,1.265c1.273,2.75,2.285,6,5,7.345a7.484,7.484,0,0,0,3.191.694,6.669,6.669,0,0,0,3.265-.588,6.253,6.253,0,0,0,2.4-2.391c1.7-2.807,1.893-6.284,1.494-9.54a26.244,26.244,0,0,0-4.268-11.475,23.953,23.953,0,0,0-21.913-10.112,30.52,30.52,0,0,0-4.366.816c-5.19,1.387-10.283,3.983-13.433,8.333a28.277,28.277,0,0,1-2.506,3.085C898.4,339.68,899.835,339.558,901.271,339.525Z" transform="translate(-210.12 -96.359)" fill="#3f3d56"/>
    <path id="Tracé_37" data-name="Tracé 37" d="M875.989,398.2s.955,7.623-2.31,9.524S875.989,398.2,875.989,398.2Z" transform="translate(-205.649 -109.363)" opacity="0.1"/>
    <path id="Tracé_38" data-name="Tracé 38" d="M961.57,468.569s7.753-11.426,8.847-8.161S961.57,468.569,961.57,468.569Z" transform="translate(-221.998 -120.693)" opacity="0.1"/>
    <path id="Tracé_39" data-name="Tracé 39" d="M962.24,473.721s7.647-9.385,8.382-5.713S962.24,473.721,962.24,473.721Z" transform="translate(-222.121 -122.042)" opacity="0.1"/>
    <path id="Tracé_40" data-name="Tracé 40" d="M924.335,460.784a12.414,12.414,0,0,1-7.688-2.53h-.669a12.079,12.079,0,0,1-8.4,3.158,11.915,11.915,0,0,1-8.708-3.493h-.89a12.821,12.821,0,0,1-16.551-.3l-3.191-.057s3.738,9.957,1.5,16.167l54.542.971a77.681,77.681,0,0,1,.392-16.021V458.6l-3-.057a12.553,12.553,0,0,1-7.345,2.236Z" transform="translate(-206.676 -120.278)" opacity="0.1"/>
    <path id="Tracé_41" data-name="Tracé 41" d="M924.335,462.784a12.413,12.413,0,0,1-7.688-2.53h-.669a12.079,12.079,0,0,1-8.4,3.158,11.916,11.916,0,0,1-8.708-3.493h-.89a12.821,12.821,0,0,1-16.551-.3l-3.191-.057s3.738,9.957,1.5,16.168l54.542.971a77.681,77.681,0,0,1,.392-16.021V460.6l-3-.057A12.553,12.553,0,0,1,924.335,462.784Z" transform="translate(-206.676 -120.645)" opacity="0.1"/>
    <path id="Tracé_42" data-name="Tracé 42" d="M924.335,461.784a12.413,12.413,0,0,1-7.688-2.53h-.669a12.079,12.079,0,0,1-8.4,3.158,11.916,11.916,0,0,1-8.708-3.493h-.89a12.821,12.821,0,0,1-16.551-.3l-3.191-.057s3.738,9.957,1.5,16.167l54.542.971a77.682,77.682,0,0,1,.392-16.021V459.6l-3-.057A12.553,12.553,0,0,1,924.335,461.784Z" transform="translate(-206.676 -120.461)" fill="#3f3d56"/>
    <path id="Tracé_43" data-name="Tracé 43" d="M931.75,395.83s11.483.735,11.556,2.367S931.75,395.83,931.75,395.83Z" transform="translate(-216.515 -108.927)" opacity="0.1"/>
    <path id="Tracé_44" data-name="Tracé 44" d="M894.966,387.3s-11.483.735-11.556,2.367S894.966,387.3,894.966,387.3Z" transform="translate(-207.627 -107.359)" opacity="0.1"/>
    <path id="Tracé_45" data-name="Tracé 45" d="M948.205,428.14c-.114-.082-.229-.147-.343-.22,2.938,2.644,2.448,8.422-1.159,13.189s-9.084,6.749-12.414,4.611c.106.09.2.188.31.277,3.265,2.5,8.977.539,12.748-4.391S951.486,430.646,948.205,428.14Z" transform="translate(-216.982 -114.828)" opacity="0.1"/>
    <path id="Tracé_46" data-name="Tracé 46" d="M873.448,440.351c-2.906-5.24-2.53-11.026.759-13.221-.122.057-.253.106-.375.171-3.607,2.008-4.081,8.023-1.094,13.442s8.373,8.161,11.981,6.186a3.129,3.129,0,0,0,.343-.229C881.463,448.333,876.354,445.591,873.448,440.351Z" transform="translate(-205.304 -114.682)" opacity="0.1"/>
    <path id="Tracé_47" data-name="Tracé 47" d="M877.968,388.747h0l-1.053,1.632-2.685-1.428,1.412-2.171A5.919,5.919,0,0,1,877.968,388.747Z" transform="translate(-205.939 -107.263)" opacity="0.1"/>
    <path id="Tracé_48" data-name="Tracé 48" d="M857.311,454.924s2.391-11.246-.816-14.821-2.179-22.313,2.718-21.9,12.242,15.229,11.018,18.363-5.852,19.179-5.852,19.179Z" transform="translate(-202.339 -113.039)" fill="#fbbebe"/>
    <path id="Tracé_49" data-name="Tracé 49" d="M941.887,359.45a6.252,6.252,0,0,1-2.4,2.391,6.668,6.668,0,0,1-3.264.588,7.486,7.486,0,0,1-3.191-.694c-2.718-1.355-3.73-4.6-5-7.345a3,3,0,0,0-.833-1.29,5.828,5.828,0,0,0-2.1-.514,5.386,5.386,0,0,1-3.33-3.061c-.7-1.387-1.118-2.922-1.918-4.252a4.5,4.5,0,0,0-3.713-2.448,10.031,10.031,0,0,0-2.93.857,8.226,8.226,0,0,1-7.786-1.518,7.946,7.946,0,0,0-2.3-1.73,5.052,5.052,0,0,0-1.82-.188c-.939,0-1.869.09-2.808.163A20.539,20.539,0,0,1,897,342.156c1.428-.122,2.865-.245,4.3-.277a5.054,5.054,0,0,1,1.82.188,7.939,7.939,0,0,1,2.3,1.73,8.227,8.227,0,0,0,7.786,1.518,10.03,10.03,0,0,1,2.93-.857,4.667,4.667,0,0,1,3.713,2.448c.808,1.306,1.224,2.856,1.918,4.252a5.344,5.344,0,0,0,3.33,3.061,5.825,5.825,0,0,1,2.1.514,3,3,0,0,1,.914,1.265c1.273,2.75,2.285,6,5,7.345a7.483,7.483,0,0,0,3.191.694,6.67,6.67,0,0,0,3.265-.588,6.252,6.252,0,0,0,2.4-2.391A13.538,13.538,0,0,0,943.6,353.5a12.471,12.471,0,0,1-1.714,5.95Z" transform="translate(-210.126 -98.704)" opacity="0.1"/>
    <ellipse id="Ellipse_4" data-name="Ellipse 4" cx="7.345" cy="4.978" rx="7.345" ry="4.978" transform="translate(651.242 340.849)" fill="#575a89"/>
    <path id="Tracé_51" data-name="Tracé 51" d="M634.07,553.269c-35.608-5.362-100.008-11.9-162.54-2.13,23.341-17.253,52-29.609,80.8-29.609C581.928,521.53,610.933,534.906,634.07,553.269Z" transform="translate(-131.894 -132.04)" fill="#f6f8fb"/>
    <path id="Tracé_53" data-name="Tracé 53" d="M863.554,113.5s-68.718-4.138-60.614,44.014c0,0-1.632,8.5,6.1,12.372,0,0,.122-3.566,7.043-2.359a31.829,31.829,0,0,0,7.468.359,15.506,15.506,0,0,0,9.124-3.77h0s19.318-7.974,26.834-39.55c0,0,5.558-6.888,5.338-8.651l-11.6,4.946s3.958,8.365.816,15.319c0,0-.375-15.009-2.6-14.69-.449.073-6.023,2.9-6.023,2.9s6.815,14.576,1.632,25.161c0,0,1.951-17.955-3.8-24.108l-8.161,4.766s7.965,15.049,2.563,27.332c0,0,1.387-18.836-4.276-26.173l-7.4,5.77s7.484,14.837,2.922,25.023c0,0-.6-21.929-4.521-23.586,0,0-6.472,5.713-7.459,8.055,0,0,5.125,10.765,1.951,16.445,0,0-1.951-14.609-3.55-14.69,0,0-6.448,9.679-7.125,16.323,0,0,.286-9.875,5.558-17.245,0,0-6.235,1.069-9.867,5.117,0,0,1-6.847,11.426-7.443,0,0,5.329-7.345,6.758-7.786,0,0-10.406-.873-16.714,1.926,0,0,5.55-6.456,18.616-3.526l7.345-5.958s-13.695-1.877-19.505.2c0,0,6.684-5.713,21.472-1.551l7.957-4.758s-11.679-2.514-18.641-1.632c0,0,7.345-3.958,20.966.335l5.713-2.555s-8.561-1.681-11.067-1.942-2.636-.963-2.636-.963a29.666,29.666,0,0,1,16.1,1.869S863.758,114.259,863.554,113.5Z" transform="translate(-192.709 -56.999)" fill="#6c63ff"/>
    <path id="Tracé_54" data-name="Tracé 54" d="M784.763,87.281S753.75,85.4,757.374,107.162a5.308,5.308,0,0,0,2.759,5.59s.049-1.632,3.183-1.061a14.738,14.738,0,0,0,3.371.163,7.092,7.092,0,0,0,4.13-1.706h0s8.724-3.607,12.12-17.873c0,0,2.514-3.109,2.448-3.909L780.144,90.6s1.8,3.779.384,6.921c0,0-.171-6.782-1.175-6.619-.2,0-2.726,1.306-2.726,1.306s3.085,6.586.759,11.369c0,0,.881-8.112-1.714-10.9l-3.689,2.155s3.6,6.807,1.159,12.356c0,0,.62-8.512-1.934-11.826l-3.346,2.6s3.379,6.7,1.322,11.3c0,0-.269-9.908-2.049-10.659,0,0-2.922,2.579-3.371,3.64,0,0,2.318,4.9.881,7.435,0,0-.881-6.6-1.632-6.627,0,0-2.914,4.366-3.216,7.345a15.9,15.9,0,0,1,2.505-7.794,8.74,8.74,0,0,0-4.456,2.31s.449-3.093,5.174-3.362c0,0,2.407-3.313,3.052-3.518,0,0-4.7-.392-7.549.873,0,0,2.505-2.922,8.414-1.632L770.2,94.6s-6.186-.816-8.814.082c0,0,3.02-2.579,9.7-.694l3.591-2.155s-5.272-1.134-8.422-.726c0,0,3.322-1.787,9.475.155l2.571-1.159s-3.868-.759-4.995-.873-1.2-.433-1.2-.433a13.376,13.376,0,0,1,7.264.816S784.853,87.624,784.763,87.281Z" transform="translate(-184.398 -52.186)" fill="#6c63ff"/>
    <ellipse id="Ellipse_6" data-name="Ellipse 6" cx="21.978" cy="3.713" rx="21.978" ry="3.713" transform="translate(849.406 588.356)" fill="#6c63ff" opacity="0.1"/>
    <ellipse id="Ellipse_7" data-name="Ellipse 7" cx="21.978" cy="3.713" rx="21.978" ry="3.713" transform="translate(11.797 650.129)" fill="#6c63ff" opacity="0.1"/>
    <ellipse id="Ellipse_8" data-name="Ellipse 8" cx="21.978" cy="3.713" rx="21.978" ry="3.713" transform="translate(139.382 654.789)" fill="#6c63ff" opacity="0.1"/>
    <ellipse id="Ellipse_9" data-name="Ellipse 9" cx="32.817" cy="5.55" rx="32.817" ry="5.55" transform="translate(790.465 626.315)" fill="#6c63ff"/>
    <path id="Tracé_55" data-name="Tracé 55" d="M1073.923,803.992a9.574,9.574,0,0,0,3.134-4.725c.4-1.869-.4-4.121-2.187-4.807-2.008-.767-4.154.629-5.778,2.032s-3.493,3-5.623,2.71a8.545,8.545,0,0,0,2.644-8.006,3.365,3.365,0,0,0-.734-1.632c-1.118-1.192-3.134-.686-4.472.253-4.244,2.987-5.427,8.749-5.452,13.94-.425-1.869-.065-3.819-.074-5.713s-.539-4.081-2.155-5.084a6.528,6.528,0,0,0-3.264-.767c-1.91-.073-4.032.114-5.338,1.51-1.632,1.738-1.2,4.644.212,6.529s3.55,3.109,5.517,4.423a12.243,12.243,0,0,1,3.95,3.762,3.965,3.965,0,0,1,.294.677h11.956A33.273,33.273,0,0,0,1073.923,803.992Z" transform="translate(-237.077 -181.195)" fill="#6c63ff"/>
    <path id="Tracé_56" data-name="Tracé 56" d="M106.547,723.55s4.481,5.86-2.073,14.69-11.956,16.323-9.794,21.84c0,0,9.883-16.437,17.955-16.674S115.394,733.433,106.547,723.55Z" transform="translate(-62.514 -169.185)" fill="#6c63ff"/>
    <path id="Tracé_57" data-name="Tracé 57" d="M106.607,723.55a7.343,7.343,0,0,1,.914,1.836c7.851,9.222,12.03,17.832,4.489,18.045-7.035.2-15.506,12.773-17.49,15.947a7.586,7.586,0,0,0,.245.726s9.883-16.437,17.955-16.674S115.454,733.433,106.607,723.55Z" transform="translate(-62.573 -169.185)" opacity="0.1"/>
    <path id="Tracé_58" data-name="Tracé 58" d="M119.306,732.4c0,2.065-.237,3.738-.522,3.738s-.514-1.632-.514-3.738.286-1.094.579-1.094S119.306,730.334,119.306,732.4Z" transform="translate(-66.94 -170.567)" fill="#ffd037"/>
    <path id="Tracé_59" data-name="Tracé 59" d="M122.2,735.4c-1.812.988-3.387,1.583-3.526,1.33s1.224-1.249,3.036-2.236,1.094-.269,1.232,0S124.048,734.415,122.2,735.4Z" transform="translate(-67.013 -171.105)" fill="#ffd037"/>
    <path id="Tracé_60" data-name="Tracé 60" d="M78.041,723.55s-4.481,5.86,2.065,14.69,11.956,16.323,9.794,21.84c0,0-9.891-16.437-17.955-16.674S69.186,733.433,78.041,723.55Z" transform="translate(-57.691 -169.185)" fill="#6c63ff"/>
    <path id="Tracé_61" data-name="Tracé 61" d="M78.038,723.55a7.042,7.042,0,0,0-.914,1.836c-7.851,9.222-12.038,17.832-4.489,18.045,7.027.2,15.506,12.773,17.481,15.947a7.538,7.538,0,0,1-.237.726s-9.891-16.437-17.955-16.674S69.183,733.433,78.038,723.55Z" transform="translate(-57.688 -169.185)" opacity="0.1"/>
    <path id="Tracé_62" data-name="Tracé 62" d="M70.1,732.4c0,2.065.229,3.738.514,3.738s.514-1.632.514-3.738-.286-1.094-.571-1.094S70.1,730.334,70.1,732.4Z" transform="translate(-58.083 -170.567)" fill="#ffd037"/>
    <path id="Tracé_63" data-name="Tracé 63" d="M66.343,735.4c1.812.988,3.4,1.583,3.534,1.33s-1.224-1.249-3.036-2.236-1.1-.269-1.232,0S64.531,734.415,66.343,735.4Z" transform="translate(-57.19 -171.105)" fill="#ffd037"/>
    <path id="Tracé_64" data-name="Tracé 64" d="M71.85,765.871s12.536-.384,16.323-3.077,19.285-5.9,20.224-1.632,18.836,21.464,4.685,21.578-32.882-2.212-36.652-4.505S71.85,765.871,71.85,765.871Z" transform="translate(-58.405 -175.719)" fill="#a8a8a8"/>
    <path id="Tracé_65" data-name="Tracé 65" d="M113.318,782.8c-14.152.114-32.882-2.212-36.652-4.505-2.873-1.747-4.015-8.023-4.4-10.92H71.85s.816,10.112,4.562,12.405,22.5,4.619,36.652,4.505c4.081,0,5.493-1.494,5.419-3.64C117.912,781.964,116.362,782.78,113.318,782.8Z" transform="translate(-58.405 -177.245)" opacity="0.2"/>
    <text id="_4" data-name="4" transform="translate(-55.637 578.857)" fill="#444053" font-size="457" font-family="SegoeUI-Bold, Segoe UI" font-weight="700"><tspan x="0" y="0">4</tspan></text>
    <text id="_4-2" data-name="4" transform="translate(412.918 569.343)" fill="#444053" font-size="457" font-family="SegoeUI-Bold, Segoe UI" font-weight="700"><tspan x="0" y="0">4</tspan></text>
    <g id="Groupe_5" data-name="Groupe 5" transform="translate(201.688 240.653)">
      <circle id="Ellipse_5" data-name="Ellipse 5" cx="167.394" cy="167.394" r="167.394" transform="translate(0)" fill="#6c63ff"/>
      <path id="Tracé_50" data-name="Tracé 50" d="M582.774,593.478c0,26.425-41.542,2.257-86.079,2.257S407.11,618.9,407.11,592.48c0-15.068,14.357-36.024,34.955-51.244h0c15.519-11.471,34.575-19.686,53.718-19.686,19.686,0,38.97,8.893,54.353,21.1C569.55,558.046,582.774,578.73,582.774,593.478Z" transform="translate(-327.547 -341.963)" fill="#444053"/>
      <path id="Tracé_52" data-name="Tracé 52" d="M364.95,281.31s-50.424,32.236-50.012,82.661S364.95,281.31,364.95,281.31Z" transform="translate(-285.387 -232.079)" opacity="0.05"/>
      <path id="Tracé_66" data-name="Tracé 66" d="M426.3,449.818c3.185-.179,18.177-1.308,27.7-6.739a10.792,10.792,0,0,1,5.03-1.481c3.028-.087,6.511,1.177,4.281,8.253-3.614,11.574-24.6,24.6-37.619,23.875-12.523-.694-27.38-5.741-37.19-23.484a10.853,10.853,0,0,1-1.34-5.583c.114-3.581,1.416-8.069,8.139-3.066,9.083,6.755,26.316,8.036,29.773,8.226A11.431,11.431,0,0,0,426.3,449.818Z" transform="translate(-318.422 -304.372)" fill="#444053"/>
      <path id="Tracé_67" data-name="Tracé 67" d="M648.3,449.818c3.185-.179,18.177-1.308,27.7-6.739a10.793,10.793,0,0,1,5.03-1.481c3.028-.087,6.511,1.177,4.281,8.253-3.614,11.574-24.6,24.6-37.619,23.875-12.523-.694-27.38-5.741-37.19-23.484a10.851,10.851,0,0,1-1.34-5.583c.114-3.581,1.416-8.069,8.139-3.066,9.083,6.755,26.316,8.036,29.773,8.226A11.43,11.43,0,0,0,648.3,449.818Z" transform="translate(-419.964 -304.372)" fill="#444053"/>
    </g>
  </g>
</svg>
